<?xml version="1.0" encoding="utf-8"?>
<!-- Generator: Adobe Illustrator 19.0.0, SVG Export Plug-In . SVG Version: 6.00 Build 0)  -->
<svg version="1.1" id="Layer_1" xmlns="http://www.w3.org/2000/svg" xmlns:xlink="http://www.w3.org/1999/xlink" x="0px" y="0px"
	 viewBox="0 0 269.8 86.2" style="enable-background:new 0 0 269.8 86.2;" xml:space="preserve">
<style type="text/css">
	.st0{stroke:#000000;stroke-width:3;stroke-miterlimit:10;}
	.st1{fill:none;}
</style>
<g id="XMLID_9_">
	<path id="XMLID_10_" d="M0,1.9h8.1v8H0V1.9z M0.4,14.7h7.2v29H0.4V14.7z"/>
	<path id="XMLID_13_" d="M17,1.9h7.8l9.6,32.1l12-32.1h6.8l9.9,32.1L74.9,1.9h7.8l-16,41.8h-7.1l-10-32l-11.8,32h-7.1L17,1.9z"/>
	<path id="XMLID_18_" d="M178.5,13.9c0,1.3-0.2,2.6-0.5,3.8c-0.3,1.2-0.8,2.4-1.5,3.5c-0.7,1.1-1.6,2.1-2.8,3
		c-1.2,0.9-2.6,1.6-4.3,2.1L182,43.7h-9.6l-11.7-16.2h-7.1v16.2h-7.4V1.9H164c0.9,0,1.7,0,2.4,0.1c0.7,0,1.6,0.2,2.7,0.4
		c1,0.2,2,0.4,2.8,0.7c0.8,0.3,1.7,0.8,2.5,1.4c0.9,0.6,1.6,1.3,2.2,2.1c0.6,0.8,1,1.8,1.4,3.1C178.3,11,178.5,12.4,178.5,13.9z
		 M153.6,8.7v12h6.8c1.2,0,2.2,0,3.1-0.1c0.9-0.1,1.8-0.2,2.8-0.5c1-0.2,1.7-0.6,2.4-1c0.6-0.4,1.1-1,1.5-1.8
		c0.4-0.8,0.6-1.7,0.6-2.7c0-3.9-3-5.9-9-5.9H153.6z"/>
	<path id="XMLID_21_" d="M193.2,1.9h7.4v35h21.1v6.8h-28.5V1.9z"/>
	<path id="XMLID_23_" d="M246.2,1.9c2.6,0,5,0.2,7.2,0.6c2.2,0.4,4.1,1,5.7,1.7c1.6,0.7,3,1.6,4.3,2.6c1.2,1,2.3,2.1,3.1,3.2
		c0.8,1.1,1.5,2.4,2,3.7c0.5,1.3,0.9,2.6,1.1,3.9s0.3,2.6,0.3,4c0,1.8-0.1,3.5-0.4,5.2s-0.8,3.4-1.6,5.1c-0.7,1.7-1.7,3.3-2.9,4.7
		c-1.2,1.4-2.7,2.6-4.5,3.7c-1.9,1.1-4,1.9-6.4,2.5c-1.2,0.3-2.6,0.5-4.1,0.6c-1.5,0.1-2.7,0.2-3.7,0.3s-2.3,0-4.1,0h-10.8V1.9
		H246.2z M246.4,8.8h-7.6v28.1h5.4c1.3,0,2.5,0,3.3-0.1c0.9,0,2-0.2,3.5-0.4c1.4-0.2,2.6-0.6,3.6-1c1-0.4,2.1-1.1,3.1-1.9
		s2-1.9,2.7-3.1c1.3-2.2,2-4.9,2-7.9c0-1.7-0.2-3.3-0.7-4.8c-0.5-1.5-1.1-2.7-1.9-3.7c-0.8-1-1.7-1.9-2.8-2.6
		c-1.1-0.7-2.1-1.3-3.2-1.7c-1.1-0.4-2.2-0.7-3.4-0.9C249.4,8.8,248.1,8.8,246.4,8.8z"/>
</g>
<g id="XMLID_26_">
	<path id="XMLID_115_" d="M12.8,79.7c-6.1,0-9.5-2.2-10-6.5c-0.1-0.5-0.1-1.1-0.1-1.8v-0.2v-15h4.1v14.7c0,0.8,0.1,1.5,0.2,2
		c0.2,0.5,0.5,1.1,1,1.5c1.1,1,2.6,1.5,4.8,1.5c1.5,0,2.8-0.3,3.8-0.8c1-0.5,1.7-1.3,1.9-2.3c0.1-0.5,0.2-1.1,0.2-2V56.2h4.1
		c0,3.4,0,6.2,0,8.3s0,3.5,0,4.1c0,0.6,0,1.1,0,1.5c0,0.4,0,0.7,0,0.9c0,0.5,0,1,0,1.4c0,0.4-0.1,0.9-0.3,1.6s-0.3,1.2-0.6,1.7
		c-0.3,0.5-0.6,1-1.1,1.5c-0.5,0.5-1.1,1-1.8,1.3c-0.7,0.3-1.6,0.6-2.6,0.9S14.1,79.7,12.8,79.7z"/>
	<path id="XMLID_117_" d="M37.7,56.2h4.5L55.1,74V56.2h4.1v23.1h-4.6L41.8,61.5v17.8h-4.1V56.2z"/>
	<path id="XMLID_119_" d="M74.6,56.2h4.1v23.1h-4.1V56.2z"/>
	<path id="XMLID_121_" d="M91.5,56.2h4.7L103,75l6.8-18.7h4.5l-9,23.1h-4.9L91.5,56.2z"/>
	<path id="XMLID_123_" d="M126.1,79.4V56.2h16.2V60h-12.1v5.6h11.2v3.8h-11.2v6.3h12.1v3.8H126.1z"/>
	<path id="XMLID_125_" d="M174.3,62.9c0,0.7-0.1,1.4-0.3,2.1s-0.5,1.3-0.8,1.9c-0.4,0.6-0.9,1.2-1.6,1.7c-0.7,0.5-1.5,0.9-2.4,1.1
		l7,9.7h-5.3l-6.5-9h-3.9v9h-4.1V56.2h9.9c0.5,0,0.9,0,1.3,0c0.4,0,0.9,0.1,1.5,0.2c0.6,0.1,1.1,0.2,1.5,0.4s0.9,0.4,1.4,0.8
		s0.9,0.7,1.2,1.2c0.3,0.5,0.6,1,0.8,1.7C174.2,61.2,174.3,62,174.3,62.9z M160.5,60v6.6h3.8c0.7,0,1.2,0,1.7-0.1s1-0.1,1.5-0.3
		c0.5-0.1,1-0.3,1.3-0.6c0.3-0.2,0.6-0.6,0.8-1c0.2-0.4,0.3-0.9,0.3-1.5c0-2.2-1.7-3.2-5-3.2H160.5z"/>
	<path id="XMLID_128_" d="M199.5,56c2.2,0,4.3,0.3,6.4,1l0.7,0.2l-1.3,3.8l-0.6-0.2c-2-0.5-3.8-0.8-5.4-0.8c-1.6,0-3,0.3-4.1,0.8
		c-1.1,0.5-1.7,1.2-1.7,2c0,0.5,0.3,1,0.8,1.4c0.5,0.4,1.2,0.7,2,1c0.8,0.3,1.7,0.6,2.7,0.8c1,0.3,1.9,0.6,2.9,0.9s1.9,0.8,2.7,1.2
		s1.5,1.1,2,1.9c0.5,0.8,0.8,1.7,0.8,2.7c0,0.7-0.1,1.3-0.3,1.9c-0.2,0.6-0.6,1.3-1.1,1.9c-0.5,0.6-1.2,1.2-2,1.6
		c-0.8,0.5-1.8,0.8-3,1.1c-1.2,0.3-2.5,0.4-4,0.4s-2.8-0.1-4-0.4c-1.2-0.3-2.5-0.7-3.8-1.2l-0.6-0.2l1.4-3.9l0.6,0.2
		c2.7,1,5,1.5,6.8,1.5c1.7,0,3-0.3,4.1-0.8c1-0.5,1.6-1.2,1.6-2c0-0.5-0.2-0.9-0.5-1.3s-0.7-0.7-1.3-0.9c-0.5-0.3-1.1-0.5-1.8-0.7
		c-0.7-0.2-1.4-0.4-2.2-0.6c-0.8-0.2-1.5-0.4-2.3-0.7c-0.8-0.2-1.5-0.5-2.2-0.9c-0.7-0.3-1.3-0.7-1.8-1.1c-0.5-0.4-1-1-1.3-1.6
		s-0.5-1.3-0.5-2.1c0-2,1-3.6,2.9-4.9C193.8,56.7,196.3,56,199.5,56z"/>
	<path id="XMLID_130_" d="M227.2,56.2h4.5l9.2,23.1h-4.2l-2.6-6.1h-9.4l-2.6,6.1h-4L227.2,56.2z M232.6,69.5l-3.3-8.6l-3.3,8.6
		H232.6z"/>
	<path id="XMLID_133_" d="M252.5,56.2h4.1v19.4h11.7v3.8h-15.8V56.2z"/>
</g>
<path id="XMLID_7_" d="M111.8,0c4.1,0,8,1,11.5,3.1c3.5,2,6.3,4.8,8.3,8.3s3.1,7.3,3.1,11.5s-1,8-3.1,11.5s-4.8,6.3-8.3,8.3
	c-3.5,2-7.3,3.1-11.5,3.1s-8-1-11.5-3.1s-6.3-4.8-8.3-8.3S89,27,89,22.8s1-8,3.1-11.5s4.8-6.3,8.3-8.3S107.7,0,111.8,0z M120,15.5
	c0,0-0.1,0.1-0.3,0.3s-0.3,0.3-0.4,0.3c0,0,0.1,0,0.1-0.1c0-0.1,0.1-0.2,0.1-0.3c0-0.1,0.1-0.2,0.1-0.2c0.1-0.1,0.3-0.3,0.7-0.4
	c0.3-0.1,0.8-0.2,1.5-0.4c0.7-0.2,1.2,0,1.5,0.3c0,0,0.1-0.2,0.3-0.4c0.2-0.2,0.4-0.3,0.4-0.4c0.1,0,0.2-0.1,0.4-0.1
	s0.4-0.1,0.4-0.2l0.1-0.7c-0.2,0-0.4,0-0.5-0.2c-0.1-0.2-0.2-0.4-0.2-0.6c0,0-0.1,0.1-0.2,0.2c0-0.1,0-0.2-0.1-0.2s-0.2,0-0.3,0
	c-0.1,0-0.2,0-0.3,0c-0.2-0.1-0.3-0.1-0.4-0.2c-0.1-0.1-0.2-0.3-0.2-0.5s-0.1-0.4-0.1-0.4c0-0.1-0.1-0.2-0.3-0.3s-0.2-0.2-0.3-0.3
	c0,0,0-0.1-0.1-0.2s-0.1-0.1-0.1-0.2s-0.1-0.1-0.1-0.2c0,0-0.1-0.1-0.2-0.1s-0.1,0-0.2,0.1c-0.1,0.1-0.2,0.2-0.2,0.3
	c-0.1,0.1-0.1,0.1-0.1,0.1c-0.1,0-0.1-0.1-0.2,0s-0.1,0-0.1,0s-0.1,0-0.1,0.1s-0.1,0.1-0.1,0.1c-0.1,0-0.1,0.1-0.3,0.1
	c-0.1,0-0.2,0-0.3,0.1c0.3-0.1,0.3-0.2,0-0.3c-0.2-0.1-0.4-0.1-0.5-0.1c0.2-0.1,0.3-0.2,0.2-0.4c0-0.2-0.1-0.3-0.3-0.4h0.1
	c0-0.1-0.1-0.2-0.3-0.3s-0.3-0.2-0.5-0.3c-0.2-0.1-0.3-0.1-0.4-0.2c-0.2-0.1-0.5-0.2-1-0.3c-0.5-0.1-0.8-0.1-1,0
	c-0.1,0.1-0.1,0.2-0.1,0.3c0,0.1,0,0.2,0.1,0.4c0.1,0.2,0.1,0.3,0.1,0.4c0,0.1,0,0.2-0.2,0.4c-0.1,0.1-0.2,0.3-0.2,0.4
	c0,0.1,0.1,0.3,0.4,0.5c0.3,0.2,0.4,0.4,0.3,0.6c-0.1,0.2-0.2,0.3-0.5,0.5c-0.3,0.2-0.4,0.3-0.5,0.4c-0.1,0.2-0.1,0.3,0,0.6
	c0.1,0.2,0.2,0.4,0.3,0.5c0,0,0.1,0.1,0,0.1c0,0,0,0.1-0.1,0.1s-0.1,0.1-0.2,0.1c0,0-0.1,0.1-0.2,0.1l-0.1,0.1
	c-0.2,0.1-0.4,0-0.6-0.2s-0.3-0.5-0.4-0.8c-0.1-0.5-0.3-0.8-0.5-0.9c-0.5-0.2-0.7-0.1-0.9,0c-0.1-0.3-0.5-0.5-1.2-0.8
	c-0.5-0.2-1.1-0.2-1.7-0.1c0.1,0,0.1-0.2,0-0.4c-0.1-0.3-0.3-0.4-0.6-0.4c0.1-0.1,0.1-0.3,0.1-0.5s0-0.4,0-0.4
	c0.1-0.3,0.2-0.5,0.4-0.7c0,0,0.1-0.1,0.2-0.3s0.2-0.3,0.3-0.4s0.1-0.2,0-0.2c0.7,0.1,1.2,0,1.5-0.3c0.1-0.1,0.2-0.3,0.3-0.5
	s0.2-0.4,0.3-0.5c0.2-0.1,0.3-0.2,0.4-0.2s0.2,0.1,0.4,0.2s0.3,0.1,0.4,0.1c0.3,0,0.4-0.1,0.5-0.3s0-0.4-0.2-0.6
	c0.2,0,0.3-0.1,0.1-0.5c-0.1-0.1-0.2-0.2-0.2-0.3c-0.2-0.1-0.5,0-0.8,0.1c-0.2,0.1-0.1,0.2,0.1,0.2c0,0-0.1,0.1-0.3,0.3
	s-0.3,0.4-0.5,0.5s-0.3,0.1-0.5-0.1c0,0-0.1-0.2-0.2-0.4s-0.2-0.4-0.3-0.4c-0.2,0-0.3,0.1-0.5,0.4c0.1-0.2,0-0.3-0.3-0.4
	s-0.5-0.2-0.7-0.2c0.4-0.2,0.3-0.5-0.2-0.8c-0.1-0.1-0.3-0.1-0.6-0.1s-0.5,0-0.6,0.1c-0.1,0.1-0.2,0.3-0.2,0.3s0,0.2,0.1,0.2
	c0.1,0.1,0.2,0.1,0.3,0.2c0.1,0,0.2,0.1,0.3,0.1s0.2,0.1,0.3,0.1c0.3,0.2,0.4,0.3,0.2,0.4c0,0-0.1,0.1-0.3,0.1s-0.2,0.1-0.3,0.1
	s-0.2,0.1-0.2,0.1c-0.1,0.1-0.1,0.2,0,0.4s0,0.3-0.1,0.4c-0.1-0.1-0.2-0.3-0.3-0.5s-0.1-0.4-0.2-0.5c0.1,0.2-0.1,0.2-0.7,0.2l-0.3,0
	c-0.1,0-0.2,0-0.5,0.1s-0.4,0-0.6,0s-0.3-0.1-0.4-0.2c-0.1-0.2-0.1-0.4,0-0.6c0-0.1,0.1-0.1,0.1-0.1c-0.1-0.1-0.2-0.2-0.3-0.3
	c-0.1-0.1-0.2-0.2-0.3-0.3c-0.9,0.3-1.8,0.7-2.8,1.2c0.1,0,0.2,0,0.4,0c0.1,0,0.2-0.1,0.4-0.2s0.3-0.1,0.3-0.2
	c0.7-0.3,1.1-0.3,1.2-0.2l0.1-0.1c0.3,0.3,0.5,0.6,0.6,0.7c-0.1-0.1-0.4-0.1-0.9,0c-0.4,0.1-0.6,0.2-0.7,0.4
	c0.1,0.2,0.2,0.4,0.1,0.5c-0.1-0.1-0.2-0.2-0.3-0.3s-0.3-0.2-0.4-0.3s-0.3-0.1-0.4-0.1c-0.3,0-0.5,0-0.7,0c-2.9,1.6-5.2,3.8-7,6.6
	c0.1,0.1,0.3,0.2,0.4,0.2c0.1,0,0.1,0.1,0.1,0.3s0,0.3,0.1,0.3s0.1,0,0.3-0.1c0.2,0.2,0.2,0.3,0.1,0.6c0,0,0.5,0.2,1.3,0.8
	c0.4,0.3,0.6,0.5,0.6,0.6c0.1,0.2,0,0.4-0.3,0.5c0,0-0.1-0.1-0.3-0.3s-0.2-0.2-0.3-0.1c-0.1,0.1-0.1,0.3,0,0.6
	c0.1,0.3,0.2,0.4,0.3,0.4c-0.1,0-0.2,0.2-0.3,0.5s-0.1,0.7-0.1,1.1s0,0.6,0,0.7l0.1,0c-0.1,0.2,0,0.6,0.2,1c0.2,0.4,0.4,0.6,0.6,0.6
	c-0.3,0.1-0.1,0.5,0.6,1.3c0.1,0.2,0.2,0.2,0.2,0.3c0.1,0,0.2,0.1,0.4,0.2s0.3,0.2,0.4,0.3s0.2,0.2,0.3,0.3c0.1,0.1,0.2,0.3,0.3,0.7
	s0.3,0.6,0.4,0.7c0,0.1,0.1,0.3,0.3,0.6s0.3,0.5,0.3,0.7c0,0,0,0-0.1,0s-0.1,0-0.1,0c0.1,0.1,0.2,0.3,0.5,0.4s0.4,0.3,0.5,0.4
	c0,0.1,0,0.2,0.1,0.3c0,0.1,0,0.2,0.1,0.3s0.1,0.1,0.2,0.1c0-0.4-0.2-1-0.7-1.8c-0.3-0.5-0.5-0.8-0.5-0.9c-0.1-0.1-0.1-0.3-0.2-0.5
	s-0.1-0.4-0.1-0.4c0,0,0.1,0,0.2,0s0.2,0.1,0.3,0.1s0.2,0.1,0.2,0.1s0.1,0.1,0.1,0.1c-0.1,0.1,0,0.3,0.1,0.5s0.2,0.4,0.4,0.6
	s0.3,0.3,0.5,0.6s0.3,0.3,0.4,0.4c0.1,0.1,0.3,0.3,0.4,0.6s0.2,0.4,0,0.4c0.2,0,0.4,0.1,0.6,0.3s0.4,0.4,0.5,0.6
	c0.1,0.2,0.2,0.4,0.2,0.8s0.1,0.6,0.1,0.7c0,0.1,0.1,0.3,0.3,0.4s0.3,0.2,0.4,0.3l0.5,0.2l0.4,0.2c0.1,0,0.3,0.1,0.6,0.3
	s0.5,0.3,0.6,0.3c0.2,0.1,0.4,0.1,0.5,0.1s0.3,0,0.4-0.1s0.3-0.1,0.4-0.1c0.3,0,0.6,0.1,0.9,0.4s0.5,0.5,0.6,0.6
	c0.7,0.4,1.3,0.5,1.6,0.3c0,0,0,0.1,0,0.2s0.1,0.3,0.2,0.5s0.2,0.3,0.3,0.4s0.1,0.2,0.2,0.3c0.1,0.1,0.3,0.3,0.5,0.4
	s0.4,0.3,0.5,0.4c0.1-0.1,0.2-0.2,0.2-0.3c-0.1,0.2,0,0.4,0.2,0.6s0.4,0.3,0.5,0.3c0.3-0.1,0.4-0.4,0.4-1c-0.6,0.3-1.1,0.1-1.5-0.5
	c0,0,0-0.1-0.1-0.2s-0.1-0.2-0.1-0.3s-0.1-0.2-0.1-0.3s0-0.2,0-0.2s0.1-0.1,0.1-0.1c0.2,0,0.3,0,0.3-0.1s0-0.2-0.1-0.4
	s-0.1-0.3-0.1-0.4c0-0.2-0.1-0.4-0.3-0.6s-0.3-0.4-0.4-0.4c-0.1,0.2-0.3,0.3-0.5,0.2s-0.4-0.1-0.5-0.3c0,0,0,0.1,0,0.2s0,0.2,0,0.2
	c-0.3,0-0.4,0-0.4,0c0-0.1,0-0.2,0.1-0.5s0.1-0.5,0.1-0.7c0-0.1,0.1-0.2,0.2-0.4s0.2-0.3,0.2-0.4s0.1-0.3,0.1-0.4s0-0.2-0.1-0.3
	s-0.3-0.1-0.5-0.1c-0.4,0-0.6,0.2-0.8,0.6c0,0.1,0,0.2-0.1,0.3s-0.1,0.3-0.1,0.3s-0.1,0.1-0.3,0.2c-0.1,0.1-0.4,0.1-0.7,0.1
	s-0.6-0.1-0.7-0.1c-0.3-0.2-0.5-0.4-0.7-0.9s-0.3-0.8-0.3-1.1c0-0.2,0-0.5,0.1-0.8s0.1-0.6,0.1-0.7s0-0.4-0.2-0.7
	c0.1,0,0.1-0.1,0.3-0.3s0.2-0.3,0.3-0.3c0,0,0.1,0,0.1,0s0.1,0,0.1,0s0.1,0,0.1,0s0.1-0.1,0.1-0.2c0,0-0.1,0-0.1-0.1
	c-0.1-0.1-0.1-0.1-0.1-0.1c0.1,0.1,0.4,0,0.8,0s0.7-0.1,0.8,0c0.3,0.2,0.5,0.2,0.7-0.1c0,0,0-0.1-0.1-0.3s-0.1-0.3,0-0.4
	c0.1,0.5,0.4,0.6,0.9,0.3c0.1,0.1,0.2,0.1,0.5,0.1s0.4,0.1,0.5,0.1c0.1,0,0.1,0.1,0.2,0.2s0.1,0.1,0.2,0.1s0.1,0,0.1,0
	s0.2-0.1,0.3-0.2c0.2,0.3,0.3,0.5,0.4,0.7c0.2,0.8,0.4,1.2,0.6,1.3c0.1,0.1,0.2,0.1,0.3,0.1s0.1-0.1,0.1-0.3s0-0.3,0-0.4
	s0-0.2,0-0.4l0-0.2v-0.5l0-0.2c-0.3-0.1-0.5-0.2-0.6-0.4s-0.1-0.4,0-0.6s0.2-0.4,0.4-0.6c0,0,0.1-0.1,0.2-0.1s0.3-0.1,0.5-0.2
	c0.2-0.1,0.3-0.2,0.4-0.2c0.4-0.4,0.6-0.7,0.4-1c0.1,0,0.2-0.1,0.3-0.3c0,0-0.1,0-0.1-0.1c-0.1-0.1-0.2-0.1-0.2-0.1
	c-0.1,0-0.1-0.1-0.1-0.1c0.2-0.1,0.2-0.3,0.1-0.5c0.1-0.1,0.2-0.2,0.2-0.3c0-0.2,0.1-0.3,0.2-0.3c0.2,0.2,0.4,0.3,0.6,0.1
	c0.2-0.2,0.2-0.3,0-0.5c0.1-0.1,0.3-0.2,0.6-0.3c0.3-0.1,0.5-0.2,0.6-0.3c0.1,0,0.2,0,0.2-0.1c0-0.1,0-0.2,0-0.4s0-0.3,0.1-0.4
	c0.1-0.1,0.2-0.2,0.4-0.3c0.2-0.1,0.3-0.1,0.4-0.1l0.5-0.3c0.1-0.1,0.1-0.1,0-0.1c0.4,0,0.7-0.1,0.9-0.3c0.2-0.2,0.1-0.4-0.2-0.6
	c0.1-0.1,0-0.2-0.1-0.3s-0.3-0.1-0.4-0.2c0.1,0,0.2,0,0.3,0c0.2,0,0.3,0,0.3,0c0.3-0.2,0.2-0.4-0.2-0.5
	C120.9,15,120.5,15.2,120,15.5z M115.1,41.6c4.1-0.7,7.6-2.6,10.4-5.6c-0.1-0.1-0.2-0.1-0.4-0.1c-0.2,0-0.3-0.1-0.4-0.1
	c-0.4-0.1-0.6-0.2-0.7-0.2c0-0.1,0-0.3-0.1-0.4c-0.1-0.1-0.1-0.2-0.2-0.3s-0.2-0.1-0.4-0.2c-0.2-0.1-0.3-0.2-0.3-0.2
	c0,0-0.1-0.1-0.2-0.2c-0.1-0.1-0.2-0.1-0.2-0.2c0,0-0.1-0.1-0.2-0.1c-0.1-0.1-0.2-0.1-0.3-0.1s-0.2,0-0.3,0l-0.1,0
	c-0.1,0-0.1,0-0.2,0.1c0,0-0.1,0.1-0.2,0.1s-0.1,0.1-0.1,0.1c0,0,0,0.1,0,0.1c-0.4-0.3-0.8-0.6-1.1-0.7c-0.1,0-0.2-0.1-0.3-0.2
	s-0.2-0.2-0.3-0.2s-0.2-0.1-0.3,0c-0.1,0-0.2,0.1-0.3,0.2c-0.1,0.1-0.2,0.2-0.2,0.4c0,0.2,0,0.3-0.1,0.4c-0.1-0.1-0.1-0.3,0-0.5
	c0.1-0.2,0.2-0.4,0.1-0.6c-0.1-0.1-0.2-0.2-0.3-0.1s-0.3,0.1-0.4,0.1s-0.2,0.1-0.3,0.3c-0.1,0.1-0.2,0.2-0.3,0.2
	c0,0-0.1,0.1-0.3,0.2c-0.1,0.1-0.2,0.2-0.3,0.2c-0.1,0.1-0.1,0.2-0.2,0.4s-0.1,0.3-0.1,0.3c0-0.1-0.2-0.1-0.3-0.2
	c-0.2,0-0.3-0.1-0.3-0.2c0,0.2,0.1,0.5,0.1,1c0,0.5,0.1,0.9,0.1,1.1c0.1,0.6,0,1.1-0.4,1.4c-0.5,0.5-0.8,0.9-0.9,1.2
	c-0.1,0.4,0,0.7,0.4,0.8c0,0.1-0.1,0.3-0.2,0.6s-0.2,0.5-0.2,0.6C115.1,41.2,115.1,41.4,115.1,41.6z"/>
<line id="XMLID_1_" class="st0" x1="0.7" y1="51.5" x2="268.7" y2="51.5"/>
<line id="XMLID_15_" class="st1" x1="166.7" y1="136" x2="166.7" y2="136"/>
<line id="XMLID_16_" class="st0" x1="0.7" y1="84.5" x2="268.7" y2="84.5"/>
</svg>
