<?xml version="1.0" encoding="utf-8"?>
<!-- Generator: Adobe Illustrator 19.0.0, SVG Export Plug-In . SVG Version: 6.00 Build 0)  -->
<svg version="1.1" id="Layer_1" xmlns="http://www.w3.org/2000/svg" xmlns:xlink="http://www.w3.org/1999/xlink" x="0px" y="0px"
	 viewBox="0 0 272.9 77.1" style="enable-background:new 0 0 272.9 77.1;" xml:space="preserve">
<g id="XMLID_9_">
	<path id="XMLID_10_" d="M0,1.9h8.1v8H0V1.9z M0.4,14.7h7.2v29H0.4V14.7z"/>
	<path id="XMLID_13_" d="M17,1.9h7.8l9.6,32.1l12-32.1h6.8l9.9,32.1L74.9,1.9h7.8l-16,41.8h-7.1l-10-32l-11.8,32h-7.1L17,1.9z"/>
	<path id="XMLID_18_" d="M178.5,13.9c0,1.3-0.2,2.6-0.5,3.8c-0.3,1.2-0.8,2.4-1.5,3.5c-0.7,1.1-1.6,2.1-2.8,3
		c-1.2,0.9-2.6,1.6-4.3,2.1L182,43.7h-9.6l-11.7-16.2h-7.1v16.2h-7.4V1.9H164c0.9,0,1.7,0,2.4,0.1c0.7,0,1.6,0.2,2.7,0.4
		c1,0.2,2,0.4,2.8,0.7c0.8,0.3,1.7,0.8,2.5,1.4c0.9,0.6,1.6,1.3,2.2,2.1c0.6,0.8,1,1.8,1.4,3.1C178.3,11,178.5,12.4,178.5,13.9z
		 M153.6,8.7v12h6.8c1.2,0,2.2,0,3.1-0.1c0.9-0.1,1.8-0.2,2.8-0.5c1-0.2,1.7-0.6,2.4-1c0.6-0.4,1.1-1,1.5-1.8
		c0.4-0.8,0.6-1.7,0.6-2.7c0-3.9-3-5.9-9-5.9H153.6z"/>
	<path id="XMLID_21_" d="M193.2,1.9h7.4v35h21.1v6.8h-28.5V1.9z"/>
	<path id="XMLID_23_" d="M246.2,1.9c2.6,0,5,0.2,7.2,0.6c2.2,0.4,4.1,1,5.7,1.7c1.6,0.7,3,1.6,4.3,2.6c1.2,1,2.3,2.1,3.1,3.2
		c0.8,1.1,1.5,2.4,2,3.7c0.5,1.3,0.9,2.6,1.1,3.9s0.3,2.6,0.3,4c0,1.8-0.1,3.5-0.4,5.2s-0.8,3.4-1.6,5.1c-0.7,1.7-1.7,3.3-2.9,4.7
		c-1.2,1.4-2.7,2.6-4.5,3.7c-1.9,1.1-4,1.9-6.4,2.5c-1.2,0.3-2.6,0.5-4.1,0.6c-1.5,0.1-2.7,0.2-3.7,0.3s-2.3,0-4.1,0h-10.8V1.9
		H246.2z M246.4,8.8h-7.6v28.1h5.4c1.3,0,2.5,0,3.3-0.1c0.9,0,2-0.2,3.5-0.4c1.4-0.2,2.6-0.6,3.6-1c1-0.4,2.1-1.1,3.1-1.9
		s2-1.9,2.7-3.1c1.3-2.2,2-4.9,2-7.9c0-1.7-0.2-3.3-0.7-4.8c-0.5-1.5-1.1-2.7-1.9-3.7c-0.8-1-1.7-1.9-2.8-2.6
		c-1.1-0.7-2.1-1.3-3.2-1.7c-1.1-0.4-2.2-0.7-3.4-0.9C249.4,8.8,248.1,8.8,246.4,8.8z"/>
</g>
<g id="XMLID_111_">
	<path id="XMLID_112_" d="M10.8,77.1c-6.3,0-9.7-2.2-10.3-6.6c-0.1-0.5-0.1-1.1-0.1-1.8v-0.2V53h4.2v15.1c0,0.8,0.1,1.5,0.2,2.1
		c0.2,0.6,0.5,1.1,1,1.5c1.1,1,2.7,1.6,4.9,1.6c1.6,0,2.9-0.3,3.9-0.8c1-0.6,1.7-1.3,2-2.4c0.1-0.5,0.2-1.2,0.2-2V53h4.2
		c0,3.5,0,6.3,0,8.5c0,2.2,0,3.6,0,4.2c0,0.6,0,1.1,0,1.5c0,0.4,0,0.7,0,0.9c0,0.5,0,1,0,1.4c0,0.4-0.1,0.9-0.3,1.6
		s-0.4,1.2-0.6,1.7c-0.3,0.5-0.7,1-1.2,1.6c-0.5,0.5-1.1,1-1.8,1.4c-0.7,0.4-1.6,0.7-2.7,0.9S12.2,77.1,10.8,77.1z"/>
	<path id="XMLID_114_" d="M36.3,53H41l13.3,18.2V53h4.2v23.7h-4.7L40.5,58.5v18.3h-4.2V53z"/>
	<path id="XMLID_116_" d="M74.1,53h4.2v23.7h-4.2V53z"/>
	<path id="XMLID_118_" d="M91.5,53h4.8l7,19.2l7-19.2h4.6l-9.2,23.7h-5L91.5,53z"/>
	<path id="XMLID_120_" d="M127,76.8V53h16.7v3.9h-12.4v5.7h11.5v3.9h-11.5v6.4h12.4v3.9H127z"/>
	<path id="XMLID_122_" d="M176.5,59.8c0,0.8-0.1,1.5-0.3,2.2c-0.2,0.7-0.5,1.3-0.9,2c-0.4,0.6-0.9,1.2-1.6,1.7
		c-0.7,0.5-1.5,0.9-2.4,1.2l7.2,9.9H173l-6.6-9.2h-4v9.2h-4.2V53h10.1c0.5,0,1,0,1.4,0c0.4,0,0.9,0.1,1.5,0.2
		c0.6,0.1,1.1,0.2,1.6,0.4s0.9,0.4,1.4,0.8c0.5,0.3,0.9,0.7,1.2,1.2c0.3,0.5,0.6,1,0.8,1.8C176.4,58.1,176.5,58.9,176.5,59.8z
		 M162.3,56.9v6.8h3.9c0.7,0,1.3,0,1.8-0.1s1-0.1,1.6-0.3c0.5-0.1,1-0.3,1.3-0.6c0.4-0.2,0.6-0.6,0.9-1c0.2-0.4,0.3-0.9,0.3-1.5
		c0-2.2-1.7-3.3-5.1-3.3H162.3z"/>
	<path id="XMLID_125_" d="M202.3,52.8c2.2,0,4.4,0.3,6.6,1l0.7,0.2l-1.4,3.9l-0.6-0.2c-2-0.6-3.9-0.8-5.5-0.8c-1.6,0-3,0.3-4.2,0.8
		s-1.7,1.2-1.7,2.1c0,0.5,0.3,1,0.8,1.4c0.5,0.4,1.2,0.8,2,1c0.8,0.3,1.7,0.6,2.7,0.8c1,0.3,2,0.6,3,1s1.9,0.8,2.7,1.3
		c0.8,0.5,1.5,1.1,2,1.9s0.8,1.7,0.8,2.7c0,0.7-0.1,1.3-0.3,2c-0.2,0.7-0.6,1.3-1.2,1.9c-0.5,0.6-1.2,1.2-2,1.7
		c-0.8,0.5-1.8,0.9-3,1.2c-1.2,0.3-2.6,0.4-4.1,0.4c-1.5,0-2.9-0.1-4.1-0.4c-1.2-0.3-2.5-0.7-3.9-1.2l-0.6-0.2l1.4-4l0.7,0.3
		c2.8,1,5.1,1.5,7,1.5c1.7,0,3.1-0.3,4.2-0.8c1.1-0.5,1.6-1.2,1.6-2.1c0-0.5-0.2-0.9-0.5-1.3c-0.3-0.4-0.8-0.7-1.3-1
		c-0.5-0.3-1.2-0.5-1.9-0.7c-0.7-0.2-1.5-0.4-2.2-0.7s-1.6-0.4-2.3-0.7s-1.5-0.5-2.2-0.9c-0.7-0.3-1.3-0.7-1.9-1.2
		c-0.5-0.4-1-1-1.3-1.6c-0.3-0.7-0.5-1.4-0.5-2.2c0-2,1-3.7,2.9-5C196.4,53.5,199,52.8,202.3,52.8z"/>
	<path id="XMLID_127_" d="M230.7,53h4.6l9.4,23.7h-4.3l-2.7-6.2H228l-2.7,6.2h-4.1L230.7,53z M236.3,66.7l-3.4-8.8l-3.4,8.8H236.3z"
		/>
	<path id="XMLID_130_" d="M256.7,53h4.2v19.9h12v3.9h-16.2V53z"/>
</g>
<path id="XMLID_7_" d="M113.9,0c4.2,0,8.1,1,11.7,3.1s6.4,4.9,8.5,8.5c2.1,3.6,3.1,7.5,3.1,11.7s-1,8.1-3.1,11.7
	c-2.1,3.6-4.9,6.4-8.5,8.5s-7.5,3.1-11.7,3.1s-8.1-1-11.7-3.1c-3.6-2.1-6.4-4.9-8.5-8.5s-3.1-7.5-3.1-11.7s1-8.1,3.1-11.7
	s4.9-6.4,8.5-8.5C105.8,1,109.7,0,113.9,0z M122.2,15.8c0,0-0.1,0.1-0.3,0.3c-0.2,0.2-0.3,0.3-0.4,0.3c0,0,0.1-0.1,0.1-0.2
	c0.1-0.1,0.1-0.2,0.2-0.3c0.1-0.1,0.1-0.2,0.1-0.2c0.1-0.1,0.3-0.3,0.7-0.5c0.3-0.1,0.8-0.2,1.6-0.4c0.7-0.2,1.2-0.1,1.5,0.3
	c0,0,0.1-0.2,0.3-0.4c0.2-0.2,0.4-0.3,0.4-0.4c0.1,0,0.2-0.1,0.5-0.1c0.2-0.1,0.4-0.1,0.5-0.2l0.1-0.7c-0.2,0-0.4-0.1-0.5-0.2
	s-0.2-0.4-0.2-0.6c0,0-0.1,0.1-0.2,0.2c0-0.1,0-0.2-0.1-0.2s-0.2,0-0.3,0c-0.1,0-0.2,0.1-0.3,0c-0.2-0.1-0.4-0.1-0.5-0.2
	s-0.2-0.3-0.2-0.5c-0.1-0.2-0.1-0.4-0.1-0.5c0-0.1-0.1-0.2-0.3-0.3c-0.2-0.1-0.2-0.2-0.3-0.3c0,0,0-0.1-0.1-0.2
	c0-0.1-0.1-0.1-0.1-0.2c0-0.1-0.1-0.1-0.1-0.2s-0.1-0.1-0.2-0.1c-0.1,0-0.1,0.1-0.2,0.2s-0.2,0.2-0.2,0.3c-0.1,0.1-0.1,0.2-0.1,0.2
	c-0.1,0-0.1-0.1-0.2,0c-0.1,0-0.1,0-0.1,0c0,0-0.1,0-0.1,0.1c-0.1,0.1-0.1,0.1-0.2,0.1c-0.1,0-0.1,0.1-0.3,0.1c-0.1,0-0.2,0-0.3,0.1
	c0.3-0.1,0.3-0.2,0-0.3c-0.2-0.1-0.4-0.1-0.5-0.1c0.2-0.1,0.3-0.2,0.2-0.4s-0.1-0.3-0.3-0.4h0.2c0-0.1-0.1-0.2-0.3-0.3
	c-0.2-0.1-0.3-0.2-0.5-0.3c-0.2-0.1-0.3-0.1-0.4-0.2c-0.2-0.1-0.5-0.2-1-0.3c-0.5-0.1-0.9-0.1-1,0c-0.1,0.1-0.1,0.2-0.1,0.3
	c0,0.1,0.1,0.2,0.1,0.4c0.1,0.2,0.1,0.3,0.1,0.4c0,0.1,0,0.3-0.2,0.4c-0.1,0.1-0.2,0.3-0.2,0.4c0,0.1,0.1,0.3,0.4,0.5
	c0.3,0.2,0.4,0.4,0.3,0.7c-0.1,0.2-0.2,0.3-0.5,0.5c-0.3,0.2-0.4,0.3-0.5,0.4c-0.1,0.2-0.1,0.3,0,0.6s0.2,0.4,0.3,0.5
	c0,0,0.1,0.1,0,0.1c0,0,0,0.1-0.1,0.1c-0.1,0.1-0.1,0.1-0.2,0.1c-0.1,0-0.1,0.1-0.2,0.1l-0.1,0.1c-0.2,0.1-0.4,0-0.6-0.2
	c-0.2-0.2-0.3-0.5-0.4-0.8c-0.1-0.5-0.3-0.8-0.5-0.9c-0.5-0.2-0.8-0.2-0.9,0c-0.1-0.3-0.5-0.5-1.2-0.8c-0.5-0.2-1.1-0.2-1.8-0.1
	c0.1,0,0.1-0.2,0-0.5c-0.1-0.3-0.3-0.4-0.6-0.4c0.1-0.1,0.1-0.3,0.1-0.5c0-0.2,0-0.4,0-0.4c0.1-0.3,0.2-0.5,0.4-0.7
	c0,0,0.1-0.1,0.2-0.3s0.2-0.3,0.3-0.4c0.1-0.1,0.1-0.2,0-0.2c0.7,0.1,1.2,0,1.5-0.3c0.1-0.1,0.2-0.3,0.3-0.5S115,7,115,6.9
	c0.2-0.1,0.3-0.2,0.4-0.2c0.1,0,0.2,0.1,0.4,0.2c0.2,0.1,0.3,0.2,0.4,0.2c0.3,0,0.4-0.1,0.5-0.3c0-0.2,0-0.4-0.2-0.6
	c0.2,0,0.3-0.2,0.1-0.5c-0.1-0.1-0.2-0.2-0.2-0.3c-0.2-0.1-0.5,0-0.8,0.2c-0.2,0.1-0.1,0.2,0.1,0.2c0,0-0.1,0.1-0.3,0.3
	c-0.2,0.2-0.3,0.4-0.5,0.5c-0.2,0.1-0.3,0.1-0.5-0.2c0,0-0.1-0.2-0.2-0.4c-0.1-0.3-0.2-0.4-0.3-0.4c-0.2,0-0.3,0.2-0.5,0.5
	c0.1-0.2-0.1-0.3-0.3-0.5c-0.3-0.1-0.5-0.2-0.7-0.2c0.4-0.2,0.3-0.5-0.2-0.8c-0.1-0.1-0.3-0.1-0.6-0.2s-0.5,0-0.6,0.1
	c-0.1,0.1-0.2,0.3-0.2,0.3c0,0.1,0,0.2,0.2,0.2c0.1,0.1,0.2,0.1,0.3,0.2c0.1,0,0.2,0.1,0.3,0.1c0.1,0,0.2,0.1,0.3,0.1
	c0.3,0.2,0.4,0.3,0.2,0.4c0,0-0.1,0.1-0.3,0.1c-0.1,0.1-0.2,0.1-0.3,0.1c-0.1,0-0.2,0.1-0.2,0.1c-0.1,0.1-0.1,0.2,0,0.4
	c0.1,0.2,0,0.3-0.1,0.4c-0.1-0.1-0.2-0.3-0.3-0.5c-0.1-0.3-0.2-0.4-0.2-0.5c0.1,0.2-0.1,0.2-0.8,0.2l-0.3,0c-0.1,0-0.2,0-0.5,0.1
	c-0.2,0-0.4,0.1-0.6,0c-0.2,0-0.3-0.1-0.4-0.2c-0.1-0.2-0.1-0.4,0-0.6c0-0.1,0.1-0.1,0.1-0.1c-0.1-0.1-0.2-0.2-0.3-0.3
	s-0.2-0.2-0.3-0.3c-0.9,0.3-1.9,0.7-2.8,1.2c0.1,0,0.2,0,0.4,0c0.1,0,0.2-0.1,0.4-0.2c0.2-0.1,0.3-0.1,0.3-0.2
	c0.7-0.3,1.1-0.4,1.3-0.2l0.2-0.2c0.3,0.3,0.5,0.6,0.6,0.8c-0.1-0.1-0.4-0.1-0.9,0c-0.4,0.1-0.6,0.2-0.7,0.4
	c0.1,0.2,0.2,0.4,0.2,0.5c-0.1-0.1-0.2-0.2-0.3-0.3c-0.2-0.1-0.3-0.3-0.4-0.3s-0.3-0.1-0.5-0.2c-0.3,0-0.5,0-0.7,0
	c-2.9,1.6-5.3,3.9-7.1,6.7c0.1,0.1,0.3,0.2,0.4,0.2c0.1,0,0.1,0.1,0.2,0.3c0,0.2,0,0.3,0.1,0.3c0,0.1,0.1,0,0.3-0.1
	c0.2,0.2,0.2,0.4,0.1,0.6c0,0,0.5,0.3,1.3,0.8c0.4,0.3,0.6,0.6,0.6,0.6c0.1,0.2,0,0.4-0.3,0.5c0,0-0.1-0.1-0.3-0.3
	c-0.2-0.1-0.3-0.2-0.3-0.1c-0.1,0.1-0.1,0.3,0,0.6c0.1,0.3,0.2,0.4,0.3,0.4c-0.1,0-0.2,0.2-0.3,0.5s-0.1,0.7-0.1,1.1s0,0.6,0,0.7
	l0.1,0c-0.1,0.2,0,0.6,0.2,1c0.2,0.5,0.4,0.7,0.7,0.6c-0.3,0.1-0.1,0.5,0.6,1.3c0.1,0.2,0.2,0.3,0.2,0.3c0.1,0,0.2,0.1,0.4,0.2
	s0.3,0.2,0.5,0.3c0.1,0.1,0.2,0.2,0.3,0.3c0.1,0.1,0.2,0.3,0.3,0.7c0.1,0.4,0.3,0.6,0.4,0.7c0,0.1,0.1,0.3,0.3,0.6
	c0.2,0.3,0.3,0.5,0.3,0.7c0,0,0,0-0.1,0c0,0-0.1,0-0.1,0c0.1,0.1,0.2,0.3,0.5,0.4c0.3,0.1,0.4,0.3,0.5,0.4c0,0.1,0,0.2,0.1,0.3
	c0,0.1,0.1,0.3,0.1,0.3c0,0.1,0.1,0.1,0.2,0.1c0-0.4-0.2-1-0.7-1.9c-0.3-0.5-0.5-0.8-0.5-0.9c-0.1-0.1-0.1-0.3-0.2-0.5
	s-0.1-0.4-0.1-0.4c0,0,0.1,0,0.2,0c0.1,0,0.2,0.1,0.3,0.1c0.1,0,0.2,0.1,0.2,0.1c0.1,0,0.1,0.1,0.1,0.1c-0.1,0.1,0,0.3,0.1,0.5
	c0.1,0.2,0.2,0.4,0.4,0.6c0.1,0.2,0.3,0.4,0.5,0.6c0.2,0.2,0.3,0.4,0.4,0.4c0.1,0.1,0.3,0.3,0.4,0.6c0.2,0.3,0.2,0.4,0,0.4
	c0.2,0,0.4,0.1,0.6,0.3s0.4,0.4,0.5,0.6c0.1,0.2,0.2,0.4,0.2,0.8c0.1,0.4,0.1,0.6,0.2,0.7c0,0.1,0.1,0.3,0.3,0.4
	c0.1,0.1,0.3,0.2,0.4,0.3l0.5,0.2l0.4,0.2c0.1,0,0.3,0.1,0.6,0.3c0.3,0.2,0.5,0.3,0.7,0.3c0.2,0.1,0.4,0.1,0.5,0.1
	c0.1,0,0.3,0,0.4-0.1c0.2-0.1,0.3-0.1,0.4-0.1c0.3,0,0.6,0.1,0.9,0.5c0.3,0.3,0.5,0.6,0.6,0.6c0.7,0.4,1.3,0.5,1.7,0.3
	c0,0,0,0.1,0,0.2c0.1,0.1,0.1,0.3,0.2,0.5c0.1,0.2,0.2,0.3,0.3,0.4s0.1,0.2,0.2,0.3c0.1,0.1,0.3,0.3,0.5,0.5
	c0.3,0.2,0.4,0.3,0.5,0.5c0.1-0.1,0.2-0.2,0.2-0.3c-0.1,0.2,0,0.4,0.2,0.6s0.4,0.3,0.5,0.3c0.3-0.1,0.4-0.4,0.4-1
	c-0.6,0.3-1.1,0.1-1.5-0.5c0,0,0-0.1-0.1-0.2c-0.1-0.1-0.1-0.2-0.1-0.3c0-0.1-0.1-0.2-0.1-0.3c0-0.1,0-0.2,0-0.2
	c0-0.1,0.1-0.1,0.2-0.1c0.2,0,0.3,0,0.3-0.1c0-0.1,0-0.2-0.1-0.4c-0.1-0.2-0.1-0.3-0.1-0.4c0-0.2-0.1-0.4-0.3-0.6s-0.3-0.4-0.4-0.5
	c-0.1,0.2-0.3,0.3-0.5,0.2s-0.4-0.1-0.5-0.3c0,0,0,0.1,0,0.2c0,0.1,0,0.2,0,0.2c-0.3,0-0.4,0-0.5,0c0-0.1,0-0.2,0.1-0.5
	s0.1-0.5,0.1-0.7c0-0.1,0.1-0.2,0.2-0.4c0.1-0.2,0.2-0.3,0.2-0.4c0.1-0.1,0.1-0.3,0.1-0.4c0-0.1,0-0.2-0.1-0.3
	c-0.1-0.1-0.3-0.1-0.5-0.1c-0.4,0-0.6,0.2-0.8,0.6c0,0.1-0.1,0.2-0.1,0.3c0,0.2-0.1,0.3-0.2,0.3c-0.1,0.1-0.2,0.2-0.3,0.2
	c-0.1,0.1-0.4,0.1-0.7,0.1s-0.6-0.1-0.7-0.2c-0.3-0.2-0.5-0.5-0.7-0.9c-0.2-0.4-0.3-0.8-0.3-1.1c0-0.2,0-0.5,0.1-0.8
	c0.1-0.3,0.1-0.6,0.1-0.8c0-0.2,0-0.4-0.2-0.7c0.1,0,0.2-0.1,0.3-0.3c0.1-0.2,0.2-0.3,0.3-0.3c0,0,0.1,0,0.1,0c0.1,0,0.1,0,0.1,0
	s0.1,0,0.1,0s0.1-0.1,0.1-0.2c0,0-0.1-0.1-0.1-0.1c-0.1-0.1-0.1-0.1-0.1-0.1c0.1,0.1,0.4,0,0.9,0c0.4-0.1,0.7-0.1,0.8,0
	c0.3,0.2,0.5,0.2,0.7-0.1c0,0,0-0.1-0.1-0.3c-0.1-0.2-0.1-0.3,0-0.4c0.1,0.5,0.4,0.6,0.9,0.3c0.1,0.1,0.2,0.1,0.5,0.2
	c0.3,0,0.4,0.1,0.5,0.2c0.1,0,0.1,0.1,0.2,0.2c0.1,0.1,0.1,0.1,0.2,0.1c0,0,0.1,0,0.2,0s0.2-0.1,0.3-0.2c0.2,0.3,0.3,0.5,0.4,0.7
	c0.2,0.8,0.4,1.3,0.6,1.3c0.1,0.1,0.3,0.1,0.3,0.1c0.1,0,0.1-0.1,0.1-0.3c0-0.2,0-0.3,0-0.4c0-0.1,0-0.2,0-0.4l0-0.2v-0.5l0-0.2
	c-0.3-0.1-0.5-0.2-0.6-0.4s-0.1-0.4,0-0.6c0.1-0.2,0.3-0.4,0.5-0.6c0,0,0.1-0.1,0.2-0.1c0.1-0.1,0.3-0.1,0.5-0.2
	c0.2-0.1,0.3-0.2,0.4-0.2c0.4-0.4,0.6-0.7,0.5-1.1c0.1,0,0.3-0.1,0.3-0.3c0,0-0.1,0-0.2-0.1c-0.1-0.1-0.2-0.1-0.2-0.2
	c-0.1,0-0.1-0.1-0.1-0.1c0.2-0.1,0.2-0.3,0.1-0.5c0.1-0.1,0.2-0.2,0.2-0.3c0.1-0.2,0.1-0.3,0.2-0.3c0.2,0.2,0.4,0.3,0.6,0.1
	c0.2-0.2,0.2-0.3,0-0.5c0.1-0.1,0.3-0.2,0.6-0.3c0.3-0.1,0.5-0.2,0.6-0.3c0.1,0,0.2,0,0.2-0.1c0-0.1,0-0.2,0-0.4
	c0-0.2,0-0.3,0.1-0.4c0.1-0.1,0.2-0.2,0.5-0.3c0.2-0.1,0.4-0.1,0.4-0.2l0.5-0.3c0.1-0.1,0.1-0.1,0-0.1c0.4,0,0.7-0.1,0.9-0.3
	c0.2-0.2,0.1-0.4-0.2-0.6c0.1-0.1,0-0.2-0.1-0.3c-0.1-0.1-0.3-0.1-0.5-0.2c0.1,0,0.2,0,0.3,0c0.2,0,0.3,0,0.3,0
	c0.3-0.2,0.2-0.4-0.2-0.5C123.1,15.3,122.7,15.4,122.2,15.8z M117.3,42.3c4.2-0.7,7.7-2.6,10.6-5.7c-0.1-0.1-0.2-0.1-0.4-0.1
	c-0.2,0-0.3-0.1-0.4-0.1c-0.4-0.1-0.6-0.2-0.7-0.2c0-0.1,0-0.3-0.1-0.4c-0.1-0.1-0.2-0.2-0.2-0.3s-0.2-0.1-0.4-0.2
	c-0.2-0.1-0.3-0.2-0.3-0.2c0,0-0.1-0.1-0.2-0.2c-0.1-0.1-0.2-0.1-0.2-0.2s-0.1-0.1-0.2-0.1s-0.2-0.1-0.3-0.1c-0.1,0-0.2,0-0.3,0
	l-0.1,0c-0.1,0-0.1,0-0.2,0.1c-0.1,0-0.1,0.1-0.2,0.1c-0.1,0-0.1,0.1-0.1,0.1c0,0,0,0.1,0,0.1c-0.4-0.3-0.8-0.6-1.1-0.7
	c-0.1,0-0.2-0.1-0.3-0.2c-0.1-0.1-0.2-0.2-0.3-0.2s-0.2-0.1-0.3,0s-0.2,0.1-0.3,0.2c-0.1,0.1-0.2,0.3-0.2,0.5s0,0.3-0.1,0.4
	c-0.1-0.1-0.1-0.3,0-0.5c0.1-0.3,0.2-0.4,0.1-0.6c-0.1-0.1-0.2-0.2-0.3-0.1c-0.2,0-0.3,0.1-0.4,0.1c-0.1,0.1-0.2,0.1-0.3,0.3
	c-0.1,0.1-0.2,0.2-0.3,0.2c0,0-0.1,0.1-0.3,0.2c-0.1,0.1-0.2,0.2-0.3,0.2c-0.1,0.1-0.1,0.2-0.2,0.4s-0.1,0.3-0.2,0.3
	c0-0.1-0.2-0.1-0.3-0.2c-0.2-0.1-0.3-0.1-0.3-0.2c0,0.2,0.1,0.6,0.1,1.1c0,0.5,0.1,0.9,0.2,1.2c0.1,0.6,0,1.1-0.4,1.5
	c-0.5,0.5-0.8,0.9-0.9,1.2c-0.1,0.4,0,0.7,0.4,0.8c0,0.1-0.1,0.3-0.2,0.6c-0.2,0.3-0.2,0.5-0.2,0.7C117.2,42,117.2,42.1,117.3,42.3z
	"/>
</svg>
